<svg viewBox="0 0 200 100" fill="none" xmlns="http://www.w3.org/2000/svg">
  <!-- Lightbulb base -->
  <rect x="70" y="70" width="60" height="16" rx="8" fill="#1e3a8a" />
  
  <!-- Lightbulb body -->
  <ellipse cx="100" cy="50" rx="50" ry="60" fill="#fbbf24" />
  
  <!-- Brain inside lightbulb -->
  <path
    d="M80 90 C80 80, 90 70, 100 70 C110 70, 120 80, 120 90 C120 100, 110 110, 100 110 C90 110, 80 100, 80 90 Z"
    fill="white"
    stroke="#1e3a8a"
    stroke-width="3"
  />
  
  <!-- Brain details -->
  <path
    d="M85 85 C85 80, 90 75, 95 75 C100 75, 105 80, 105 85"
    fill="none"
    stroke="#1e3a8a"
    stroke-width="2"
  />
  <path
    d="M85 95 C85 90, 90 85, 95 85 C100 85, 105 90, 105 95"
    fill="none"
    stroke="#1e3a8a"
    stroke-width="2"
  />
  
  <!-- Light rays -->
  <line x1="50" y1="50" x2="40" y2="40" stroke="#1e3a8a" stroke-width="4" stroke-dasharray="4,4" />
  <line x1="100" y1="40" x2="100" y2="30" stroke="#1e3a8a" stroke-width="4" stroke-dasharray="4,4" />
  <line x1="150" y1="50" x2="160" y2="40" stroke="#1e3a8a" stroke-width="4" stroke-dasharray="4,4" />
  <line x1="170" y1="80" x2="180" y2="80" stroke="#1e3a8a" stroke-width="4" stroke-dasharray="4,4" />
  <line x1="170" y1="120" x2="180" y2="120" stroke="#1e3a8a" stroke-width="4" stroke-dasharray="4,4" />
  <line x1="150" y1="150" x2="160" y2="160" stroke="#1e3a8a" stroke-width="4" stroke-dasharray="4,4" />
  <line x1="100" y1="160" x2="100" y2="170" stroke="#1e3a8a" stroke-width="4" stroke-dasharray="4,4" />
  <line x1="50" y1="150" x2="40" y2="160" stroke="#1e3a8a" stroke-width="4" stroke-dasharray="4,4" />
  <line x1="30" y1="80" x2="20" y2="80" stroke="#1e3a8a" stroke-width="4" stroke-dasharray="4,4" />
  <line x1="30" y1="120" x2="20" y2="120" stroke="#1e3a8a" stroke-width="4" stroke-dasharray="4,4" />
  
  <!-- CANDELLAR text -->
  <text x="100" y="140" text-anchor="middle" font-family="Arial, sans-serif" font-size="16" font-weight="bold" fill="#1e3a8a">CANDELLAR</text>
  
  <!-- LEARN MORE FOR LESS text -->
  <text x="100" y="155" text-anchor="middle" font-family="Arial, sans-serif" font-size="10" font-weight="normal" fill="#64748b">LEARN MORE FOR LESS</text>
</svg>
